<?xml version="1.0" encoding="utf-8"?>
<!-- Generator: Adobe Illustrator 27.4.1, SVG Export Plug-In . SVG Version: 6.00 Build 0)  -->
<svg version="1.1" id="Layer_1" xmlns="http://www.w3.org/2000/svg" xmlns:xlink="http://www.w3.org/1999/xlink" x="0px" y="0px"
	 viewBox="0 0 500 423.5" style="enable-background:new 0 0 500 423.5;" xml:space="preserve">
<style type="text/css">
	.st0{fill:none;stroke:#676A69;stroke-width:2;}
	.st1{fill:#676A69;}
	.st2{fill:#E31B1D;}
	.st3{fill:#00A4DD;}
</style>
<line class="st0" x1="0" y1="257.1" x2="500" y2="257.1"/>
<path class="st1" d="M23.3,340.7c-11,0-18.6-7-18.6-18.8v-29.6h6.6v29.6c0,9.2,5.8,12.7,12,12.7c6.2,0,12.2-3.5,12.2-12.7v-29.6h6.5
	v29.6C41.9,333.3,33.9,340.7,23.3,340.7 M92.2,339.9v-47.6h-6.5V326c0,0.6,0.1,1.6,0.1,1.6s-0.5-0.8-0.8-1.4l-24.7-33.9h-5.5v47.6
	h6.5v-34.2c0-0.5-0.1-1.6-0.1-1.6s0.6,0.9,0.8,1.3l25,34.5L92.2,339.9L92.2,339.9z M105.4,339.9h6.5v-47.6h-6.5V339.9z M159.3,292.3
	h-6.2L141,326.7c-0.2,0.6-0.4,1.6-0.4,1.6s-0.2-1-0.4-1.6l-12.1-34.4h-6.3l16.8,47.6h4L159.3,292.3z M197.1,339.9v-6.1h-21.3v-14
	h19.6v-6.1h-19.6v-15.2h20.1v-6.1h-26.6v47.6L197.1,339.9L197.1,339.9z M242.8,339.9l-17.5-20c7.1,0,13.6-6,13.6-13.6
	c0-7.7-5.9-14-14.7-14h-15.4v47.6h6.5v-22.2l19.2,22.2H242.8z M222.9,298.4c6.2,0,9.1,4.4,9.1,7.6c0,5.1-3.4,8.7-9.3,8.7h-7.6v-16.4
	L222.9,298.4 M263.9,340.7c7.9,0,14.6-4.8,14.6-13.4c0-8-5.7-11.4-11.2-14.1c-5.9-2.9-10.4-4.7-10.4-9.8c0-3.6,3.1-5.5,6.8-5.5
	c4,0,6.5,0.8,9.4,3l3.5-5.4c-3.7-2.6-8.1-4-12.9-4c-8.5,0-13.8,5.2-13.8,12.3c0,9.1,6.9,12.1,13.7,15.5c4.3,2.2,8,4.4,8,8.4
	c0,4.5-3.3,6.7-8.1,6.7c-3.3,0-7.4-1.2-9.9-3.5l-3.7,5C254.3,339.5,259,340.7,263.9,340.7 M289.2,339.9h6.5v-47.6h-6.5V339.9z
	 M332.8,298.4v-6.1h-26.3v6.1h9.7v41.5h6.5v-41.5H332.8z M371.4,339.9v-6.1h-21.3v-14h19.6v-6.1h-19.6v-15.2h20.1v-6.1h-26.6v47.6
	L371.4,339.9L371.4,339.9z M365,278.9h-6.3l-6.1,9.6h6.3L365,278.9z M420.9,339.9c16.3,0,26-10.7,26-23.9c0-13-9.2-23.7-25.4-23.7
	h-12.1v47.6L420.9,339.9 M421.4,298.2c11.4,0,18.8,8.1,18.8,17.9c0,8.9-5.9,18-20,18h-4.2v-35.9H421.4 M476.4,340.7
	c10.6,0,18.7-7.4,18.7-18.8v-29.6h-6.5v29.6c0,9.1-6,12.7-12.2,12.7c-6.3,0-12-3.5-12-12.7v-29.6h-6.6v29.6
	C457.9,333.7,465.5,340.7,476.4,340.7 M29.5,422.7v-6.1H11.4v-41.5H4.9v47.6H29.5z M60.4,423.5C71,423.5,79,416,79,404.7v-29.6h-6.5
	v29.6c0,9.1-6,12.6-12.2,12.6c-6.3,0-12-3.5-12-12.6v-29.6h-6.6v29.6C41.8,416.4,49.4,423.5,60.4,423.5 M132.5,422.7L116,397.2
	l14.5-22.2H123l-9.2,14c-0.8,1.3-1.6,2.6-1.6,2.6s-0.8-1.4-1.5-2.5l-9.1-14.1h-8l14.6,22.5l-16.5,25.1h7.6l10.6-16.1
	c0.9-1.4,2.2-3.5,2.2-3.5s1.2,2.2,2,3.3l10.6,16.2L132.5,422.7L132.5,422.7z M173.2,422.7v-6.1h-21.3v-14h19.6v-6.1h-19.6v-15.2H172
	v-6.1h-26.6v47.6L173.2,422.7L173.2,422.7z M236.4,422.7v-47.6h-5.8l-17.4,23.3l-17.9-23.3h-5.5v47.6h6.5v-34.5
	c0-0.9-0.1-1.8-0.1-1.8s0.4,0.7,0.7,1l15.1,19.6h2.6l14.9-20.2c0.3-0.3,0.7-1.1,0.7-1.1s-0.1,1-0.1,1.8v35L236.4,422.7L236.4,422.7z
	 M268.8,422.7c10.5,0,14.7-7,14.7-12.9c0-5.9-4.3-10.2-8-11.3c3.1-2,5.5-5.5,5.5-11c0-7.4-5.7-12.4-13.8-12.4h-12.6v47.6
	L268.8,422.7 M266,381.2c5.3,0,8.2,2.5,8.2,6.8c0,4-1.6,8.3-8.7,8.3H261v-15.1L266,381.2 M268.7,402.4c4.8,0,8,2.7,8,6.8
	c0,4.4-2.7,7.3-8.6,7.3h-7v-14.2L268.7,402.4 M318.9,423.5c13.4,0,24.3-10.8,24.3-24.6c0-13.8-9.9-24.6-24.7-24.6
	c-13.8,0-24.1,10.6-24.1,24.5C294.4,413.1,305.2,423.5,318.9,423.5 M318.6,380.7c10.5,0,17.8,7.6,17.8,17.9
	c0,11.4-8.2,18.5-17.6,18.5c-9.4,0-17.7-7.8-17.7-18.3C301.2,388.3,308.3,380.7,318.6,380.7 M374.6,423.5c10.6,0,18.7-7.4,18.7-18.8
	v-29.6h-6.5v29.6c0,9.1-6,12.6-12.2,12.6c-6.3,0-12-3.5-12-12.6v-29.6h-6.6v29.6C356.1,416.4,363.7,423.5,374.6,423.5 M442.2,422.7
	l-17.5-20c7.1,0,13.6-6,13.6-13.6c0-7.7-5.9-14-14.7-14h-15.4v47.6h6.5v-22.2l19.2,22.2H442.2z M422.3,381.2c6.2,0,9.1,4.4,9.1,7.6
	c0,5.1-3.4,8.7-9.3,8.7h-7.6v-16.4L422.3,381.2 M474.1,423.5c11.5,0,21.8-9.2,21.8-22.1H474v6.1h14.4c-1.7,5.7-7.2,9.6-14,9.6
	c-9.7,0-17.5-8.5-17.5-18.1c0-11,7.7-18.3,17.3-18.3c5.5,0,9.6,1.5,13.7,4.9l4-4.8c-4.6-4-9.9-6.5-17.5-6.5
	c-13.1,0-24.2,9.8-24.2,24.6C450,413.6,462.1,423.5,474.1,423.5"/>
<path class="st2" d="M238.3,55.2c7,0,13.1-4,16.1-10.1h2.1v158.7c0,10-8.1,18.2-18.2,18.2c-10,0-18.2-8.2-18.2-18.2V45.1h2.1
	C225.3,51.2,231.3,55.2,238.3,55.2 M223.1,18.5c0,8.4,6.8,15.2,15.2,15.2c8.4,0,15.2-6.8,15.2-15.2c0-8.4-6.8-15.2-15.2-15.2
	C229.9,3.3,223.1,10.1,223.1,18.5 M223.1,18.5c0,8.4,6.8,15.2,15.2,15.2c8.4,0,15.2-6.8,15.2-15.2c0-8.4-6.8-15.2-15.2-15.2
	C229.9,3.3,223.1,10.1,223.1,18.5 M41.1,222V63.2C41.1,53.2,33,45,22.9,45C12.9,45,4.7,53.2,4.7,63.2v140.5
	c0,10.1,8.2,18.2,18.2,18.2l0,0L41.1,222L41.1,222z M51,222h7.6c10.1,0,18.2-9.7,18.2-19.7h0c0,9.7,2,19.7,10.6,19.7h0V63.2
	c0-10.1-8.1-18.2-18.2-18.2s-18.2,8.1-18.2,18.2L51,222L51,222 M158.7,45v158.7c0,10.1,8.2,18.2,18.2,18.2c10,0,18.2-8.1,18.2-18.2
	V63.2c0-10.1-8.2-18.2-18.2-18.2l0,0H158.7z M141.3,45c-10,0-18.2,9.7-18.2,19.7h0c0-9.7-2-19.7-10.6-19.7h0v158.7
	c0,10.1,8.1,18.2,18.2,18.2c10,0,18.2-8.1,18.2-18.2V45h0H141.3z"/>
<path class="st3" d="M369.3,10.1c7,0,13.1-4,16.1-10.1h2v203.8c0,10-8.1,18.2-18.2,18.2c-10.1,0-18.3-8.2-18.3-18.2V0h2.1
	C356.2,6.1,362.3,10.1,369.3,10.1 M449.1,222V63.2c0-10.1-8.2-18.2-18.2-18.2c-10,0-18.2,8.1-18.2,18.2v140.5
	c0,10.1,8.1,18.2,18.2,18.2l0,0L449.1,222L449.1,222z M466.5,222c10,0,18.2-9.7,18.2-19.7h0c0,9.7,2,19.7,10.6,19.7h0V63.2
	c0-10.1-8.1-18.2-18.2-18.2c-10,0-18.2,8.1-18.2,18.2V222h0H466.5z M285.7,203.7c0,10.1,8.2,18.2,18.3,18.2
	c10.1,0,18.2-8.2,18.2-18.2s-8.2-18.2-18.2-18.2C293.9,185.5,285.7,193.7,285.7,203.7"/>
</svg>
